<svg width="887" height="39" viewBox="0 0 887 39" fill="none" xmlns="http://www.w3.org/2000/svg">
<path d="M181 10L171 0H716L706 10H580.285C574.543 10 569.242 13.0766 566.393 18.0618L558.455 31.9537C556.319 35.6926 552.342 38 548.036 38H341.964C337.658 38 333.681 35.6926 331.545 31.9537L323.607 18.0618C320.758 13.0766 315.457 10 309.715 10H181Z" fill="url(#paint0_linear_4480_2550)"/>
<path fill-rule="evenodd" clip-rule="evenodd" d="M-3.72529e-09 0C-1.26892e-07 0.255922 0.0976309 0.511845 0.292893 0.707107L10.2929 10.7071C10.6834 11.0976 11.3166 11.0976 11.7071 10.7071C12.0976 10.3166 12.0976 9.68342 11.7071 9.29289L2.41421 0H-3.72529e-09ZM10 0C10 0.255922 10.0976 0.511845 10.2929 0.707107L20.2929 10.7071C20.6834 11.0976 21.3166 11.0976 21.7071 10.7071C22.0976 10.3166 22.0976 9.68342 21.7071 9.29289L12.4142 0H10ZM20 0C20 0.255922 20.0976 0.511845 20.2929 0.707107L30.2929 10.7071C30.6834 11.0976 31.3166 11.0976 31.7071 10.7071C32.0976 10.3166 32.0976 9.68342 31.7071 9.29289L22.4142 0H20ZM30 0C30 0.255922 30.0976 0.511845 30.2929 0.707107L40.2929 10.7071C40.6834 11.0976 41.3166 11.0976 41.7071 10.7071C42.0976 10.3166 42.0976 9.68342 41.7071 9.29289L32.4142 0H30ZM40 0C40 0.255922 40.0976 0.511845 40.2929 0.707107L50.2929 10.7071C50.6834 11.0976 51.3166 11.0976 51.7071 10.7071C52.0976 10.3166 52.0976 9.68342 51.7071 9.29289L42.4142 0H40ZM50 0C50 0.255922 50.0976 0.511845 50.2929 0.707107L60.2929 10.7071C60.6834 11.0976 61.3166 11.0976 61.7071 10.7071C62.0976 10.3166 62.0976 9.68342 61.7071 9.29289L52.4142 0H50ZM60 0C60 0.255922 60.0976 0.511845 60.2929 0.707107L70.2929 10.7071C70.6834 11.0976 71.3166 11.0976 71.7071 10.7071C72.0976 10.3166 72.0976 9.68342 71.7071 9.29289L62.4142 0H60ZM70 0C70 0.255922 70.0976 0.511845 70.2929 0.707107L80.2929 10.7071C80.6834 11.0976 81.3166 11.0976 81.7071 10.7071C82.0976 10.3166 82.0976 9.68342 81.7071 9.29289L72.4142 0H70ZM80 0C80 0.255922 80.0976 0.511845 80.2929 0.707107L90.2929 10.7071C90.6834 11.0976 91.3166 11.0976 91.7071 10.7071C92.0976 10.3166 92.0976 9.68342 91.7071 9.29289L82.4142 0H80ZM90 0C90 0.255922 90.0976 0.511845 90.2929 0.707107L100.293 10.7071C100.683 11.0976 101.317 11.0976 101.707 10.7071C102.098 10.3166 102.098 9.68342 101.707 9.29289L92.4142 0H90ZM100 0C100 0.255922 100.098 0.511845 100.293 0.707107L110.293 10.7071C110.683 11.0976 111.317 11.0976 111.707 10.7071C112.098 10.3166 112.098 9.68342 111.707 9.29289L102.414 0H100ZM110 0C110 0.255922 110.098 0.511845 110.293 0.707107L120.293 10.7071C120.683 11.0976 121.317 11.0976 121.707 10.7071C122.098 10.3166 122.098 9.68342 121.707 9.29289L112.414 0H110ZM120 0C120 0.255922 120.098 0.511845 120.293 0.707107L130.293 10.7071C130.683 11.0976 131.317 11.0976 131.707 10.7071C132.098 10.3166 132.098 9.68342 131.707 9.29289L122.414 0H120ZM130 0C130 0.255922 130.098 0.511845 130.293 0.707107L140.293 10.7071C140.683 11.0976 141.317 11.0976 141.707 10.7071C142.098 10.3166 142.098 9.68342 141.707 9.29289L132.414 0H130ZM140 0C140 0.255922 140.098 0.511845 140.293 0.707107L150.293 10.7071C150.683 11.0976 151.317 11.0976 151.707 10.7071C152.098 10.3166 152.098 9.68342 151.707 9.29289L142.414 0H140ZM150 0C150 0.255922 150.098 0.511845 150.293 0.707107L160.293 10.7071C160.683 11.0976 161.317 11.0976 161.707 10.7071C162.098 10.3166 162.098 9.68342 161.707 9.29289L152.414 0H150ZM160 0C160 0.255922 160.098 0.511845 160.293 0.707107L170.293 10.7071C170.683 11.0976 171.317 11.0976 171.707 10.7071C172.098 10.3166 172.098 9.68342 171.707 9.29289L162.414 0H160ZM170 0C170 0.255922 170.098 0.511845 170.293 0.707107L180.293 10.7071L180.586 11H181H309.715C315.098 11 320.068 13.8843 322.738 18.5579L330.677 32.4498C332.991 36.5003 337.299 39 341.964 39H548.036C552.701 39 557.009 36.5003 559.323 32.4498L567.261 18.5579C569.932 13.8843 574.902 11 580.285 11H706H706.414L706.707 10.7071L716.707 0.707107C716.902 0.511845 717 0.255922 717 0H714.586L705.586 9H580.285C574.185 9 568.552 12.2689 565.525 17.5656L557.587 31.4575C555.628 34.8849 551.984 37 548.036 37H341.964C338.016 37 334.372 34.8849 332.413 31.4575L324.475 17.5656C321.448 12.2689 315.815 9 309.715 9H181.414L172.414 0H170ZM724.586 0L715.293 9.29289C714.902 9.68342 714.902 10.3166 715.293 10.7071C715.683 11.0976 716.317 11.0976 716.707 10.7071L726.707 0.707107C726.902 0.511845 727 0.255922 727 0H724.586ZM734.586 0L725.293 9.29289C724.902 9.68342 724.902 10.3166 725.293 10.7071C725.683 11.0976 726.317 11.0976 726.707 10.7071L736.707 0.707107C736.902 0.511845 737 0.255922 737 0H734.586ZM744.586 0L735.293 9.29289C734.902 9.68342 734.902 10.3166 735.293 10.7071C735.683 11.0976 736.317 11.0976 736.707 10.7071L746.707 0.707107C746.902 0.511845 747 0.255922 747 0H744.586ZM754.586 0L745.293 9.29289C744.902 9.68342 744.902 10.3166 745.293 10.7071C745.683 11.0976 746.317 11.0976 746.707 10.7071L756.707 0.707107C756.902 0.511845 757 0.255922 757 0H754.586ZM764.586 0L755.293 9.29289C754.902 9.68342 754.902 10.3166 755.293 10.7071C755.683 11.0976 756.317 11.0976 756.707 10.7071L766.707 0.707107C766.902 0.511845 767 0.255922 767 0H764.586ZM774.586 0L765.293 9.29289C764.902 9.68342 764.902 10.3166 765.293 10.7071C765.683 11.0976 766.317 11.0976 766.707 10.7071L776.707 0.707107C776.902 0.511845 777 0.255922 777 0H774.586ZM784.586 0L775.293 9.29289C774.902 9.68342 774.902 10.3166 775.293 10.7071C775.683 11.0976 776.317 11.0976 776.707 10.7071L786.707 0.707107C786.902 0.511845 787 0.255922 787 0H784.586ZM794.586 0L785.293 9.29289C784.902 9.68342 784.902 10.3166 785.293 10.7071C785.683 11.0976 786.317 11.0976 786.707 10.7071L796.707 0.707107C796.902 0.511845 797 0.255922 797 0H794.586ZM804.586 0L795.293 9.29289C794.902 9.68342 794.902 10.3166 795.293 10.7071C795.683 11.0976 796.317 11.0976 796.707 10.7071L806.707 0.707107C806.902 0.511845 807 0.255922 807 0H804.586ZM814.586 0L805.293 9.29289C804.902 9.68342 804.902 10.3166 805.293 10.7071C805.683 11.0976 806.317 11.0976 806.707 10.7071L816.707 0.707107C816.902 0.511845 817 0.255922 817 0H814.586ZM824.586 0L815.293 9.29289C814.902 9.68342 814.902 10.3166 815.293 10.7071C815.683 11.0976 816.317 11.0976 816.707 10.7071L826.707 0.707107C826.902 0.511845 827 0.255922 827 0H824.586ZM834.586 0L825.293 9.29289C824.902 9.68342 824.902 10.3166 825.293 10.7071C825.683 11.0976 826.317 11.0976 826.707 10.7071L836.707 0.707107C836.902 0.511845 837 0.255922 837 0H834.586ZM844.586 0L835.293 9.29289C834.902 9.68342 834.902 10.3166 835.293 10.7071C835.683 11.0976 836.317 11.0976 836.707 10.7071L846.707 0.707107C846.902 0.511845 847 0.255922 847 0H844.586ZM854.586 0L845.293 9.29289C844.902 9.68342 844.902 10.3166 845.293 10.7071C845.683 11.0976 846.317 11.0976 846.707 10.7071L856.707 0.707107C856.902 0.511845 857 0.255922 857 0H854.586ZM864.586 0L855.293 9.29289C854.902 9.68342 854.902 10.3166 855.293 10.7071C855.683 11.0976 856.317 11.0976 856.707 10.7071L866.707 0.707107C866.902 0.511845 867 0.255922 867 0H864.586ZM874.586 0L865.293 9.29289C864.902 9.68342 864.902 10.3166 865.293 10.7071C865.683 11.0976 866.317 11.0976 866.707 10.7071L876.707 0.707107C876.902 0.511845 877 0.255922 877 0H874.586ZM884.586 0L875.293 9.29289C874.902 9.68342 874.902 10.3166 875.293 10.7071C875.683 11.0976 876.317 11.0976 876.707 10.7071L886.707 0.707107C886.902 0.511845 887 0.255922 887 0H884.586Z" fill="#6787AF"/>
<defs>
<linearGradient id="paint0_linear_4480_2550" x1="443.5" y1="0" x2="443.5" y2="38" gradientUnits="userSpaceOnUse">
<stop stop-color="#112A5B"/>
<stop offset="1" stop-color="#4F658E"/>
</linearGradient>
</defs>
</svg>
